<svg xmlns="http://www.w3.org/2000/svg" width="400" height="400"><path fill="#2F2E7A" d="M252.293 79.922c21.47 10.243 40.938 25.647 55.27 44.766A170 170 0 0 1 311 130l2.035 3.254c10.912 17.983 17.436 38.932 18.203 60.004.473 25.059-4.282 47.814-16.237 69.936-4.564 8.234-9.936 15.622-16.001 22.806l-1.98 2.426c-13.146 15.464-31.14 27.188-50.086 34.265-23.108 7.88-46.763 10.567-70.934 6.309-22.015-4.449-42.526-13.115-59.504-27.99q-2.25-2.003-4.496-4.01l-2.422-1.984c-15.333-12.723-26.377-31.502-33.317-49.983-7.567-21.43-9.406-45.335-5.698-67.72C74.278 157.628 81.911 137.396 95 122l2.004-2.383c2.272-2.602 4.615-5.114 6.996-7.617l1.556-1.654c7.858-8.314 15.676-15.3 25.444-21.346l3.188-2.043c35.34-21.546 80.479-24.278 118.105-7.035M99 164c3.092 3.881 6.043 7.028 10 10.063 15.919 12.794 28.624 28.402 39 45.937l1.1 1.851c6.58 11.265 11.2 23.167 15.736 35.376C167.085 264.6 167.085 264.6 171 271c2.67.141 5.324.042 8 0l.715-2.636C193 219.636 193 219.636 201 210h2c1.202 1.566 1.202 1.566 2.54 3.777l1.496 2.469 1.589 2.691 1.636 2.763c7.537 12.906 13.244 26.045 18.127 40.167l.948 2.723.83 2.433c.764 2.158.764 2.158 2.834 3.977 3.5.417 3.5.417 7 0 1.91-2.864 2.49-4.461 3.227-7.734l.674-2.894.724-3.122c6.094-25.058 14.727-49.174 31.375-69.25l2.395-3.105C283.803 177.967 289.63 172.782 297 168l3-2v-2c-4.95-.614-9.288-.673-13.98 1.172-8.062 4.473-14.48 10.436-21.02 16.828l-2.215 2.027C251.547 194.553 244.835 208.44 238 222q-5.235-8.261-10.448-16.537-1.441-2.288-2.89-4.574a1251 1251 0 0 1-3.35-5.327l-1.886-2.996c-2.23-4.014-2.23-4.014-2.426-6.566 3.401-7.039 10.59-12.952 16.91-17.32l1.653-1.055L238 166v-2c-4.65-.555-8.622-.507-13.055 1.125-6.14 3-11.687 6.514-16.945 10.875-3.395-1.458-5.523-3.338-8.062-6-2.275-2.374-4.183-4.163-6.938-6a85 85 0 0 0-7.293-.195l-2.14.008c-2.251.011-4.503.037-6.755.062q-2.29.016-4.583.027-5.614.035-11.229.098l1 3c1.751 1.586 1.751 1.586 3.938 3.125C183.734 183.571 183.734 183.571 189 192c.3 3.344.172 5.577-1.102 8.7l-1.523 2.698-1.64 2.95c-.86 1.498-.86 1.498-1.735 3.027l-1.734 3.098A977 977 0 0 1 177 220l-3-1c-1.192-1.635-1.192-1.635-2.348-3.762l-1.318-2.37c-.46-.844-.922-1.687-1.397-2.555-7.614-13.5-16.17-25.177-26.937-36.313l-2.332-2.453c-4.294-4.536-4.294-4.536-9.668-7.547-3.392-.276-3.392-.276-7.172-.195l-2.068.008c-2.17.011-4.34.037-6.51.062q-2.212.016-4.426.027-5.412.035-10.824.098"/><path fill="#4E3F75" d="M255 82c4.462 1.31 7.996 3.07 11.875 5.625l2.93 1.914L272 91l-2 1c-2.625-.937-2.625-.937-5-2v-2l-5-1v-2l-5-2z"/></svg>